<?xml version="1.0" encoding="UTF-8" standalone="no"?>
<!-- Created with Inkscape (http://www.inkscape.org/) -->

<svg
   width="52"
   height="52"
   viewBox="0 0 210 210"
   version="1.1"
   id="svg1"
   xmlns="http://www.w3.org/2000/svg"
   xmlns:svg="http://www.w3.org/2000/svg">
  <defs
     id="defs1" />
  <g
     id="layer1">
    <ellipse
       style="fill:#ffffff;fill-opacity:1;stroke:#000000;stroke-width:3.487;stroke-dasharray:none;stroke-opacity:1"
       id="path1"
       cx="135.34564"
       cy="105.11839"
       rx="65.333221"
       ry="67.966049" />
    <path
       style="fill:#ffffff;fill-opacity:1;stroke:#000000;stroke-width:3.58701;stroke-dasharray:none;stroke-opacity:1"
       d="m 112.4861,97.786175 c 0,-0.27522 0.27523,-0.825667 0,-0.825667 -0.27522,0 0,1.100884 0,0.825667 0,-1.127354 0.0304,-2.040358 0.20642,-3.096242 0.0967,-0.580307 0.48104,-1.098454 0.61925,-1.651331 0.0334,-0.1335 -0.0615,-0.28975 0,-0.41283 0.087,-0.174067 0.30489,-0.250907 0.41284,-0.412837 0.42879,-0.643177 0.59645,-1.617131 1.03209,-2.270575 0.10795,-0.16193 0.3258,-0.23877 0.41283,-0.41283 0.10584,-0.211667 0.10058,-0.613997 0.20642,-0.825664 0.087,-0.17407 0.35129,-0.22821 0.41283,-0.412837 0.0435,-0.13054 -0.0435,-0.28228 0,-0.41283 0.0615,-0.184617 0.30488,-0.250907 0.41284,-0.412837 0.37643,-0.564647 0.44697,-1.289701 0.82567,-1.857738 0.24321,-0.36482 0.57807,-0.660697 0.82566,-1.032084 0.26217,-0.39325 0.73482,-0.528387 1.03209,-0.825657 1.07287,-1.072864 -0.19568,-0.215017 0.82567,-1.032084 0.4969,-0.397517 0.95,-0.842564 1.44492,-1.238504 0.38744,-0.309947 0.88766,-0.474817 1.2385,-0.825654 0.1088,-0.1088 0.0976,-0.304047 0.20642,-0.412837 0.29436,-0.29436 0.70964,-0.171 1.03209,-0.412827 0.12308,-0.0923 0.0976,-0.30405 0.20642,-0.41284 0.24326,-0.243257 0.53066,-0.442247 0.82566,-0.619244 0.41953,-0.25172 1.36877,-0.703417 1.85776,-0.825667 0.1335,-0.0334 0.28228,0.0435 0.41284,0 0.40217,-0.13406 0.77642,-0.526837 1.2385,-0.619247 2.36048,-0.472097 4.882,-0.619247 7.43102,-0.619247 0.55108,0 1.3213,-0.134117 1.85776,0 0.80012,0.20003 1.64694,0.24682 2.477,0.41283 0.41999,-0.0717 0.66875,0.340167 1.03209,0.412837 0.66319,0.13263 1.4062,0.0419 2.06417,0.20641 0.0944,0.0236 0.11202,0.182817 0.20642,0.206417 0.50254,0.12563 1.15977,-0.16386 1.65134,0 0.53851,0.17951 0.92998,0.2841 1.44492,0.412827 0.27339,0.0683 2.65841,1.419904 2.88984,1.651331 0.19388,0.19388 0.29182,0.716527 0.61925,0.825667 0.13055,0.0435 0.29834,-0.0763 0.41284,0 0.12533,0.250677 0.17643,0.461647 0.41283,0.619244 1.40849,0.938997 1.9734,2.295448 2.68343,3.715499 0.087,0.17406 0.3258,0.23876 0.41283,0.41283 0.10632,0.212627 0.26832,0.887564 0.41284,1.032084 0.0487,0.0486 0.15776,-0.0487 0.20641,0 0.16133,0.161317 0.13832,0.621357 0.20642,0.825654 0.0981,0.29425 0.29723,0.29724 0.41283,0.412837 0.0705,0.0705 0.29008,1.322154 0.41284,1.444914 0.0487,0.0487 0.15776,-0.0487 0.20642,0 0.20651,0.206507 0.31767,1.159421 0.41283,1.444911 0.12078,0.362337 0.44672,0.687017 0.61925,1.032084 0.0991,0.19811 -0.0661,0.627437 0,0.825664 0.0308,0.0923 0.1629,0.11938 0.20642,0.20642 0.099,0.19804 -0.0116,0.389687 0.20642,0.825654 0.17623,0.35246 -0.12166,0.995187 0.20641,1.651331 0.1677,0.3354 -0.17694,2.300058 0,2.476998 0.19226,0.192247 0.20642,-0.0162 0.20642,0.412837"
       id="path2" />
    <path
       style="fill:#ff6600;fill-opacity:1;stroke:#000000;stroke-width:3.58701;stroke-dasharray:none;stroke-opacity:1"
       d="m 71.854546,95.584347 c 0,0.342887 -0.342898,1.028674 0,1.028674 0.342894,0 -0.08317,-1.361334 0,-1.028674 0.167621,0.670487 0.121629,1.379651 0.257169,2.057348 0.238313,1.191554 1.053979,2.107948 1.543029,3.086045 0.07667,0.15335 -0.07667,0.361 0,0.51434 0.177202,0.35441 0.603134,0.34597 0.771512,0.51435 0.157012,0.15701 0.487661,1.77351 0.514342,1.8002 0.06062,0.0606 0.196556,-0.0606 0.257172,0 0.147265,0.14726 0.178073,0.79138 0.257173,1.02868 0.15087,0.45261 0.638357,0.88639 0.771511,1.28586 0.05422,0.16265 -0.04158,0.34801 0,0.51434 0.138277,0.5531 0.612619,1.06633 0.771515,1.54303 0.108434,0.32529 -0.08316,0.69602 0,1.02868 0.235183,0.94073 0.727646,1.6686 1.028684,2.57171 0.05422,0.16265 -0.05422,0.3517 0,0.51435 0.335089,1.00526 0.591936,2.21255 1.028687,3.08605 0.30041,0.60082 0,7.14036 0,8.22948 0,0.22821 -0.116528,1.0528 0,1.28586 0.625427,1.25085 0.328102,5.00156 -0.257173,6.17211 -0.130767,0.26153 -0.100113,1.90031 -0.257169,2.05736 -0.06062,0.0606 -0.196557,-0.0606 -0.257173,0 -0.11888,0.11889 0.07764,0.61624 0,0.77152 -0.149786,0.29957 -0.364556,0.47194 -0.514342,0.77151 -0.07667,0.15335 0.121232,0.39311 0,0.51434 -0.128585,0.12859 -0.385757,0.12859 -0.514342,0.25718 -0.06062,0.0606 0.06062,0.19655 0,0.25717 -0.370954,0.37095 -1.826495,-0.24403 -2.314543,0 -0.624665,0.31233 -0.993664,0.11107 -1.285854,0.25717 -0.108434,0.0542 -0.14216,0.21883 -0.257172,0.25717 -0.3253,0.10843 -0.72199,-0.15335 -1.028684,0 -0.07667,0.0383 0.06062,0.19655 0,0.25717 -0.226709,0.22671 -1.734611,-0.0538 -2.057371,0 -1.126273,0.18771 -2.222111,0.51434 -3.343225,0.51434 -1.540047,0 -3.377335,-0.30178 -4.886253,0 -1.730566,0.34611 -3.377494,0.11001 -5.143426,0.25718 -0.435597,0.0363 -0.850919,0.21367 -1.285857,0.25716 -1.250577,0.12506 -2.598946,0 -3.857566,0 -2.743161,0 -5.486321,0 -8.229481,0 -4.125603,0 -8.544986,0.4189 -12.60139,-0.25716 -0.919346,-0.15323 -1.760221,0.14857 -2.571712,-0.25718 -0.411474,-0.20573 -1.131554,0.20574 -1.543027,0 -0.540455,-0.27022 -0.77971,-0.13268 -1.028685,-0.25717 -0.108433,-0.0542 -0.142161,-0.21883 -0.257172,-0.25717 -0.246972,-0.0823 -0.781862,0.12341 -1.028685,0 -0.329296,-0.16465 -0.685786,-0.40004 -1.028684,-0.51434 -0.691415,-0.23047 -1.43605,-0.20369 -2.05737,-0.51434 -0.272516,-0.13626 -0.737292,0.0971 -1.028685,0 -0.668377,-0.2228 -1.224143,-0.48349 -1.800199,-0.77152 -0.230021,-0.11501 -0.527539,0.0813 -0.771513,0 -0.632692,-0.21089 -1.167507,-0.81779 -1.800199,-1.02868 -0.372499,-0.12417 -0.92155,-0.075 -1.285856,-0.25717 -0.216866,-0.10844 -0.297477,-0.40591 -0.514343,-0.51435 -0.153347,-0.0767 -0.360995,0.0767 -0.514342,0 -1.070286,-0.53514 0.274925,0.0178 -0.257172,-0.51434 -0.121231,-0.12123 -0.393111,0.12123 -0.514342,0 -0.06062,-0.0606 0.06062,-0.19655 0,-0.25717 -0.121232,-0.12123 -0.360996,0.0767 -0.514343,0 -0.202243,-0.10112 -0.91045,-0.39611 -1.028686,-0.51434 -0.06062,-0.0606 0.06062,-0.19656 0,-0.25718 -0.118881,-0.11888 -0.61624,0.0776 -0.771514,0 -0.299572,-0.14978 -0.471942,-0.36455 -0.7715137,-0.51434 -0.1533472,-0.0767 -0.3931107,0.12123 -0.5143423,0 -0.060616,-0.0606 0.060616,-0.19655 0,-0.25717 -0.060616,-0.0606 -0.1804977,0.0383 -0.2571713,0 -0.2168657,-0.10843 -0.2974766,-0.40591 -0.5143426,-0.51434 -0.076674,-0.0383 -0.1965552,0.0606 -0.257171,0 -0.5320964,-0.5321 0.8131138,0.0208 -0.2571713,-0.51434 -0.076674,-0.0383 -0.1965555,0.0606 -0.2571713,0 -0.2143093,-0.21431 -0.042862,-0.81438 -0.2571713,-1.02869 -0.060616,-0.0606 -0.1965552,0.0606 -0.257171,0 -0.1285856,-0.12858 0.1285854,-0.64292 0,-0.77151 -0.060616,-0.0606 -0.1965555,0.0606 -0.2571713,0 -0.1212318,-0.12123 0.076674,-0.361 0,-0.51434 -0.655738,-1.31148 0.2894637,-1.97723 1.0286849,-3.08606 0.1063273,-0.15949 0.12163,-0.3788 0.2571713,-0.51434 0.135541,-0.13554 0.3788013,-0.12163 0.5143423,-0.25717 0.1355413,-0.13554 0.150844,-0.35485 0.2571713,-0.51435 0.4913643,-0.73704 1.6055363,-1.70286 2.3145413,-2.05736 0.145691,-0.0728 0.950095,-1.46444 1.028686,-1.54303 0.149056,-0.14906 0.879629,-0.36529 1.028685,-0.51434 0.06062,-0.0606 -0.03834,-0.1805 0,-0.25717 0.19066,-0.38132 1.703741,-1.30728 2.057371,-1.54303 1.757743,-1.17183 3.476608,-2.35029 5.143424,-3.6004 0.870532,-0.6529 3.082324,-1.28399 4.11474,-1.8002 0.383368,-0.19168 0.645316,-0.57983 1.028685,-0.77151 1.075609,-0.53781 2.126323,-1.0804 3.086054,-1.8002 0.12951,-0.56659 0.529051,-0.13594 0.771514,-0.25717 0.779512,-0.38976 1.553535,-0.90536 2.31454,-1.28586 0.712986,-0.35649 1.665499,-0.63926 2.314543,-1.02868 0.762426,-0.12851 0.985949,-0.91447 1.543027,-1.28586 0.543205,-0.36214 1.256993,-0.40938 1.800198,-0.77151 0.07133,-0.0476 -0.06062,-0.19656 0,-0.25718 0.121232,-0.12123 0.39311,0.12124 0.514342,0 0.06062,-0.0606 -0.07667,-0.21883 0,-0.25716 0.153347,-0.0767 0.351695,0.0542 0.514342,0 0.115012,-0.0383 0.142161,-0.21884 0.257173,-0.25718 2.118079,-0.70602 -1.217729,0.86604 1.028684,-0.25717 1.552421,-0.77621 3.131089,-1.70633 4.886253,-2.05737 0.704885,-0.14098 1.359734,-0.23529 2.057371,-0.51434 0.848955,-0.33958 1.680692,-0.805927 2.57171,-1.028674 0.5627,-0.14068 1.237502,-0.1165 1.800202,-0.25718 0.593076,-0.14827 1.31301,-0.527917 1.800198,-0.771507 1.553252,-0.776624 0.108884,0.0371 1.285854,-0.257167 0.371922,-0.093 0.656764,-0.421357 1.028687,-0.514347 0.994844,-0.2487 1.901669,-0.565067 2.828882,-1.028674 0.230021,-0.11501 0.52754,0.0813 0.771515,0 0.115009,-0.0383 0.14216,-0.21883 0.257169,-0.25717 0.424678,-0.141557 2.686384,-0.443087 2.828886,-0.514337 1.756042,-0.878014 7.541593,-0.575867 9.772507,-0.257167 z"
       id="path3" />
    <path
       style="fill:#ff6600;fill-opacity:1;stroke:#000000;stroke-width:3.58701;stroke-dasharray:none;stroke-opacity:1"
       d="m 112.5549,99.450484 c 0,-0.288091 0,-1.217943 0,-1.75102 0,-0.163177 0,-0.326356 0,-0.489532 0,-0.06276 -0.0103,-0.126376 0,-0.188283 0.007,-0.04221 0.0188,-0.06755 0.0188,-0.112969"
       id="path5" />
  </g>
</svg>
